<mxfile host="app.diagrams.net" agent="Mozilla/5.0 (Windows NT 10.0; Win64; x64) AppleWebKit/537.36 (KHTML, like Gecko) Chrome/131.0.0.0 Safari/537.36 Edg/131.0.0.0" version="25.0.3">
  <diagram name="Page-1" id="2PhZHp2Zp_hMo8UnVyEw">
    <mxGraphModel dx="996" dy="567" grid="1" gridSize="10" guides="1" tooltips="1" connect="1" arrows="1" fold="1" page="1" pageScale="1" pageWidth="850" pageHeight="1100" math="0" shadow="0">
      <root>
        <mxCell id="0" />
        <mxCell id="1" parent="0" />
        <mxCell id="N5Wt3wc-4LDNAjXiuJqm-1" value="Babbage&lt;div&gt;(Software&lt;/div&gt;&lt;div&gt;Architect)&lt;/div&gt;" style="image;html=1;image=img/lib/clip_art/people/Suit_Man_128x128.png" vertex="1" parent="1">
          <mxGeometry x="20" y="105" width="80" height="80" as="geometry" />
        </mxCell>
        <mxCell id="N5Wt3wc-4LDNAjXiuJqm-4" value="I want to generate Design Decions with LLM&#39;s. But I cannot send company data to proprietary LLM&#39;s like ChatGPT&amp;nbsp;" style="whiteSpace=wrap;html=1;shape=mxgraph.basic.rectCallout;dx=30;dy=15;boundedLbl=1;" vertex="1" parent="1">
          <mxGeometry x="110" y="20" width="160" height="90" as="geometry" />
        </mxCell>
        <mxCell id="N5Wt3wc-4LDNAjXiuJqm-5" value="Ada (ML&lt;div&gt;Engineer)&lt;/div&gt;" style="image;html=1;image=img/lib/clip_art/people/Suit_Woman_Black_128x128.png" vertex="1" parent="1">
          <mxGeometry x="280" y="170" width="80" height="80" as="geometry" />
        </mxCell>
        <mxCell id="N5Wt3wc-4LDNAjXiuJqm-6" value="You can use an open-source small LLM hosted locally" style="whiteSpace=wrap;html=1;shape=mxgraph.basic.rectCallout;dx=30;dy=15;boundedLbl=1;flipH=1;" vertex="1" parent="1">
          <mxGeometry x="110" y="120" width="160" height="50" as="geometry" />
        </mxCell>
        <mxCell id="N5Wt3wc-4LDNAjXiuJqm-7" value="Will it perform as well as big models like ChatGPT?" style="whiteSpace=wrap;html=1;shape=mxgraph.basic.rectCallout;dx=30;dy=15;boundedLbl=1;flipH=0;flipV=1;" vertex="1" parent="1">
          <mxGeometry x="110" y="170" width="160" height="50" as="geometry" />
        </mxCell>
        <mxCell id="N5Wt3wc-4LDNAjXiuJqm-8" value="Not as is. But you can fine-tune it and provide previous decisions with RAG for better performance." style="whiteSpace=wrap;html=1;shape=mxgraph.basic.rectCallout;dx=30;dy=15;boundedLbl=1;flipH=1;flipV=1;" vertex="1" parent="1">
          <mxGeometry x="110" y="230" width="160" height="80" as="geometry" />
        </mxCell>
        <mxCell id="N5Wt3wc-4LDNAjXiuJqm-9" value="Oh, that sounds great!" style="whiteSpace=wrap;html=1;shape=mxgraph.basic.rectCallout;dx=30;dy=15;boundedLbl=1;flipH=0;flipV=1;" vertex="1" parent="1">
          <mxGeometry x="110" y="320" width="160" height="40" as="geometry" />
        </mxCell>
        <mxCell id="N5Wt3wc-4LDNAjXiuJqm-10" value="We can also have a combination of the 2, which is even better" style="whiteSpace=wrap;html=1;shape=mxgraph.basic.rectCallout;dx=30;dy=15;boundedLbl=1;flipH=1;flipV=1;" vertex="1" parent="1">
          <mxGeometry x="110" y="370" width="160" height="70" as="geometry" />
        </mxCell>
      </root>
    </mxGraphModel>
  </diagram>
</mxfile>
